<?xml version="1.0" encoding="UTF-8" standalone="no"?>
<!DOCTYPE svg PUBLIC "-//W3C//DTD SVG 1.1//EN" "http://www.w3.org/Graphics/SVG/1.1/DTD/svg11.dtd">
<svg width="100%" height="100%" viewBox="0 0 224 209" version="1.1" xmlns="http://www.w3.org/2000/svg" xmlns:xlink="http://www.w3.org/1999/xlink" xml:space="preserve" xmlns:serif="http://www.serif.com/" style="fill-rule:evenodd;clip-rule:evenodd;stroke-linejoin:round;stroke-miterlimit:2;">
    <g transform="matrix(0.75,0,0,0.75,0,0)">
        <g transform="matrix(0.702532,0,0,0.702532,-29.9206,-49.0617)">
            <path d="M149.171,93.161C203.281,83.54 313.729,52.377 364.021,82.959C421.069,117.649 493.829,155.801 456.109,251.828C418.466,347.656 424.282,423.247 365.014,452.339C289.612,489.35 146.279,435.719 93.309,393.638C41.813,352.729 25.333,223.451 63.536,171.036C101.739,118.62 87.302,104.161 149.171,93.161ZM154.341,349.828C163.102,310.839 182.242,226.876 205.507,184.565C209.959,176.467 214.458,169.989 219.18,166.064C221.92,163.788 224.555,162.364 227.384,163.391C230.944,164.683 233.366,167.609 235.216,171.344C237.708,176.378 239.097,182.767 239.845,189.839C243.747,226.729 229.711,280.784 229.711,280.784C228.587,285.147 231.135,289.613 235.462,290.867C239.79,292.121 244.33,289.708 245.713,285.42C245.713,285.42 262.557,233.007 288.139,197.782C294.574,188.921 301.539,181.161 308.994,175.847C318.422,169.126 328.64,166.585 339.307,172.495C345.918,176.157 349.811,182.197 351.893,189.641C354.343,198.401 354.378,208.941 352.967,220.352C345.843,278 301.747,356.25 301.747,356.25C299.495,360.26 300.923,365.344 304.933,367.596C308.943,369.848 314.028,368.421 316.28,364.41C316.28,364.41 362.069,282.598 369.508,222.396C373.117,193.193 367.294,168.947 347.385,157.916C326.719,146.466 306.829,153.64 289.416,170.634C276.977,182.773 265.851,200.152 256.677,217.508C257.331,207.347 257.386,197.221 256.419,188.086C254.295,168.005 246.69,152.668 233.071,147.724C226.233,145.242 219.419,146.138 212.742,150.213C205.331,154.737 197.831,163.933 190.902,176.535C167.009,219.988 147.077,306.133 138.08,346.174C137.072,350.661 139.896,355.123 144.383,356.131C148.871,357.14 153.333,354.315 154.341,349.828Z" style="fill:url(#_Linear1);"/>
        </g>
    </g>
    <defs>
        <linearGradient id="_Linear1" x1="0" y1="0" x2="1" y2="0" gradientUnits="userSpaceOnUse" gradientTransform="matrix(423.921,-3.11704,3.11704,423.921,42.5896,72.9526)"><stop offset="0" style="stop-color:rgb(255,148,252);stop-opacity:1"/><stop offset="1" style="stop-color:rgb(255,205,154);stop-opacity:1"/></linearGradient>
    </defs>
</svg>
